{
    "accessors" : [
        {
            "bufferView" : 0, 
            "componentType" : 5123, 
            "count" : 13248, 
            "max" : [
                8895
            ], 
            "min" : [
                0
            ], 
            "type" : "SCALAR"
        }, 
        {
            "bufferView" : 1, 
            "componentType" : 5126, 
            "count" : 8896, 
            "max" : [
                1.000000238418579, 
                1.759317398071289, 
                1.0000003576278687
            ], 
            "min" : [
                -0.9999998211860657, 
                -1.0, 
                -0.9999991655349731
            ], 
            "type" : "VEC3"
        }, 
        {
            "bufferView" : 2, 
            "componentType" : 5126, 
            "count" : 8896, 
            "max" : [
                0.9970963597297668, 
                1.0, 
                0.9989359378814697
            ], 
            "min" : [
                -0.9988246560096741, 
                -0.9996628761291504, 
                -0.9999159574508667
            ], 
            "type" : "VEC3"
        }, 
        {
            "bufferView" : 3, 
            "componentType" : 5126, 
            "count" : 8896, 
            "max" : [
                0.999850869178772, 
                0.9998508680000668
            ], 
            "min" : [
                0.00014913199993316084, 
                0.4398154616355896
            ], 
            "type" : "VEC2"
        }
    ], 
    "asset" : {
        "generator" : "Khronos Blender glTF 2.0 exporter", 
        "version" : "2.0"
    }, 
    "bufferViews" : [
        {
            "buffer" : 0, 
            "byteLength" : 26496, 
            "byteOffset" : 0, 
            "target" : 34963
        }, 
        {
            "buffer" : 0, 
            "byteLength" : 106752, 
            "byteOffset" : 26496, 
            "target" : 34962
        }, 
        {
            "buffer" : 0, 
            "byteLength" : 106752, 
            "byteOffset" : 133248, 
            "target" : 34962
        }, 
        {
            "buffer" : 0, 
            "byteLength" : 71168, 
            "byteOffset" : 240000, 
            "target" : 34962
        }
    ], 
    "buffers" : [
        {
            "byteLength" : 311168, 
            "uri" : "bomb.bin"
        }
    ], 
    "meshes" : [
        {
            "name" : "Sphere", 
            "primitives" : [
                {
                    "attributes" : {
                        "NORMAL" : 2, 
                        "POSITION" : 1, 
                        "TEXCOORD_0" : 3
                    }, 
                    "indices" : 0
                }
            ]
        }
    ], 
    "nodes" : [
        {
            "mesh" : 0, 
            "name" : "Sphere", 
            "translation" : [
                -0.027575969696044922, 
                1.0832165479660034, 
                0.005348682403564453
            ]
        }
    ], 
    "scene" : 0, 
    "scenes" : [
        {
            "name" : "Scene", 
            "nodes" : [
                0
            ]
        }
    ]
}
